# xmcd
#
# Track frame offsets:
#	150
#	17739
#	36155
#	54342
#	70091
#	86441
#	103150
#	119751
#	133206
#	149932
#	163572
#	177484
#	194061
#	205716
#	221287
#
# Disc length: 3150 seconds
#
# Revision: 1
# Processed by: cddbd v1.5.2PL0 Copyright (c) Steve Scherf et al.
# Submitted via: audiograbber 1.83.01
#
DISCID=e80c4c0f
DTITLE=FredericFRANCOIS - Chansons de toujours
DYEAR=2007
DGENRE=
TTITLE0=Frederic FRANCOIS - Piste  1
TTITLE1=Frederic FRANCOIS - Piste  2
TTITLE2=Frederic FRANCOIS - Piste  3
TTITLE3=Frederic FRANCOIS - Piste  4
TTITLE4=Frederic FRANCOIS - Piste  5
TTITLE5=Frederic FRANCOIS - Piste  6
TTITLE6=Frederic FRANCOIS - Piste  7
TTITLE7=Frederic FRANCOIS - Piste  8
TTITLE8=Frederic FRANCOIS - Piste  9
TTITLE9=Frederic FRANCOIS - Piste 10
TTITLE10=Frederic FRANCOIS - Piste 11
TTITLE11=Frederic FRANCOIS - Piste 12
TTITLE12=Frederic FRANCOIS - Piste 13
TTITLE13=Frederic FRANCOIS - Piste 14
TTITLE14=Frederic FRANCOIS - Fanny Fanny
EXTD=CD1
EXTT0=
EXTT1=
EXTT2=
EXTT3=
EXTT4=
EXTT5=
EXTT6=
EXTT7=
EXTT8=
EXTT9=
EXTT10=
EXTT11=
EXTT12=
EXTT13=
EXTT14=
PLAYORDER=
